<svg xmlns="http://www.w3.org/2000/svg" width="16" height="16" viewBox="0 0 16 16" fill="#666666">
  <path d="M11,1C8.8,1,7,2.8,7,5c0,0.9,0.3,1.7,0.8,2.4l-0.8,0.8L6,8.2c-0.1,0-0.2-0.1-0.4-0.1H4.4C4.2,8.1,4,8.2,3.9,8.4
  l-3,3C0.7,11.6,0.7,11.8,0.7,12c0,0.2,0.1,0.4,0.2,0.5l2.5,2.5C3.6,15.3,3.8,15.4,4,15.4c0.2,0,0.4-0.1,0.5-0.2l3-3
  C7.7,12,7.8,11.8,7.8,11.6v-1.2c0-0.1,0-0.3-0.1-0.4l-0.1-0.1l0.8-0.8C9.3,9.7,10.1,10,11,10c2.2,0,4-1.8,4-4S13.2,1,11,1z M11,8
  c-1.7,0-3-1.3-3-3s1.3-3,3-3s3,1.3,3,3S12.7,8,11,8z"/>
</svg> 